<?xml version="1.0" encoding="UTF-8" standalone="no"?>
<!DOCTYPE svg PUBLIC "-//W3C//DTD SVG 1.1//EN"
 "http://www.w3.org/Graphics/SVG/1.1/DTD/svg11.dtd">
<!-- Generated by graphviz version 12.1.2 (0)
 -->
<!-- Title: dependencies Pages: 1 -->
<svg width="496pt" height="204pt"
 viewBox="0.00 0.00 496.26 204.00" xmlns="http://www.w3.org/2000/svg" xmlns:xlink="http://www.w3.org/1999/xlink">
<g id="graph0" class="graph" transform="scale(1 1) rotate(0) translate(4 200)">
<title>dependencies</title>
<polygon fill="white" stroke="none" points="-4,4 -4,-200 492.26,-200 492.26,4 -4,4"/>
<g id="clust1" class="cluster">
<title>cluster_</title>
<polygon fill="#eeeeee" stroke="#eeeeee" points="8,-64 8,-188 180,-188 180,-64 8,-64"/>
</g>
<!-- ::configuration -->
<g id="node1" class="node">
<title>::configuration</title>
<ellipse fill="#e3f38b" stroke="black" cx="94" cy="-90" rx="77.51" ry="18"/>
<text text-anchor="middle" x="94" y="-85.33" font-family="Times,serif" font-size="14.00">configuration</text>
</g>
<!-- ::clap -->
<g id="node3" class="node">
<title>::clap</title>
<ellipse fill="none" stroke="black" cx="94" cy="-18" rx="38.06" ry="18"/>
<text text-anchor="middle" x="94" y="-13.32" font-family="Times,serif" font-size="14.00">::clap</text>
</g>
<!-- ::configuration&#45;&gt;::clap -->
<g id="edge1" class="edge">
<title>::configuration&#45;&gt;::clap</title>
<path fill="none" stroke="black" d="M94,-71.7C94,-64.41 94,-55.73 94,-47.54"/>
<polygon fill="black" stroke="black" points="97.5,-47.62 94,-37.62 90.5,-47.62 97.5,-47.62"/>
</g>
<!-- ::main -->
<g id="node2" class="node">
<title>::main</title>
<ellipse fill="#e3f38b" stroke="black" cx="136" cy="-162" rx="35.95" ry="18"/>
<text text-anchor="middle" x="136" y="-157.32" font-family="Times,serif" font-size="14.00">main</text>
</g>
<!-- ::main&#45;&gt;::configuration -->
<g id="edge2" class="edge">
<title>::main&#45;&gt;::configuration</title>
<path fill="none" stroke="black" d="M126.05,-144.41C121.25,-136.42 115.39,-126.64 109.99,-117.64"/>
<polygon fill="black" stroke="black" points="113.1,-116.03 104.95,-109.25 107.1,-119.63 113.1,-116.03"/>
</g>
<!-- ::anyhow -->
<g id="node4" class="node">
<title>::anyhow</title>
<ellipse fill="none" stroke="black" cx="245" cy="-90" rx="55.94" ry="18"/>
<text text-anchor="middle" x="245" y="-85.33" font-family="Times,serif" font-size="14.00">::anyhow</text>
</g>
<!-- ::main&#45;&gt;::anyhow -->
<g id="edge3" class="edge">
<title>::main&#45;&gt;::anyhow</title>
<path fill="none" stroke="black" d="M157.53,-147.17C172.93,-137.29 193.93,-123.79 211.5,-112.51"/>
<polygon fill="black" stroke="black" points="213.06,-115.67 219.58,-107.32 209.27,-109.78 213.06,-115.67"/>
</g>
<!-- ::std -->
<g id="node5" class="node">
<title>::std</title>
<ellipse fill="none" stroke="black" cx="352" cy="-90" rx="33.32" ry="18"/>
<text text-anchor="middle" x="352" y="-85.33" font-family="Times,serif" font-size="14.00">::std</text>
</g>
<!-- ::main&#45;&gt;::std -->
<g id="edge4" class="edge">
<title>::main&#45;&gt;::std</title>
<path fill="none" stroke="black" d="M167.07,-152.44C202.09,-142.58 260.58,-125.49 310,-108 311.92,-107.32 313.88,-106.61 315.85,-105.87"/>
<polygon fill="black" stroke="black" points="316.9,-109.22 324.96,-102.34 314.37,-102.69 316.9,-109.22"/>
</g>
<!-- ::tokio -->
<g id="node6" class="node">
<title>::tokio</title>
<ellipse fill="none" stroke="black" cx="446" cy="-90" rx="42.26" ry="18"/>
<text text-anchor="middle" x="446" y="-85.33" font-family="Times,serif" font-size="14.00">::tokio</text>
</g>
<!-- ::main&#45;&gt;::tokio -->
<g id="edge5" class="edge">
<title>::main&#45;&gt;::tokio</title>
<path fill="none" stroke="black" d="M169.68,-155.34C219.21,-146.73 314.44,-129.1 394,-108 396.95,-107.22 399.99,-106.36 403.03,-105.47"/>
<polygon fill="black" stroke="black" points="404.02,-108.82 412.55,-102.54 401.96,-102.13 404.02,-108.82"/>
</g>
</g>
</svg>
<?xml version="1.0" encoding="UTF-8" standalone="no"?>
<!DOCTYPE svg PUBLIC "-//W3C//DTD SVG 1.1//EN"
 "http://www.w3.org/Graphics/SVG/1.1/DTD/svg11.dtd">
<!-- Generated by graphviz version 12.1.2 (0)
 -->
<!-- Title: dependencies Pages: 1 -->
<svg width="367pt" height="276pt"
 viewBox="0.00 0.00 367.26 276.00" xmlns="http://www.w3.org/2000/svg" xmlns:xlink="http://www.w3.org/1999/xlink">
<g id="graph0" class="graph" transform="scale(1 1) rotate(0) translate(4 272)">
<title>dependencies</title>
<polygon fill="white" stroke="none" points="-4,4 -4,-272 363.26,-272 363.26,4 -4,4"/>
<g id="clust1" class="cluster">
<title>cluster_</title>
<polygon fill="#eeeeee" stroke="#eeeeee" points="8,-64 8,-260 180,-260 180,-64 8,-64"/>
</g>
<!-- ::app_builder -->
<g id="node1" class="node">
<title>::app_builder</title>
<ellipse fill="#e3f38b" stroke="black" cx="102" cy="-162" rx="70.15" ry="18"/>
<text text-anchor="middle" x="102" y="-157.32" font-family="Times,serif" font-size="14.00">app_builder</text>
</g>
<!-- ::configuration -->
<g id="node2" class="node">
<title>::configuration</title>
<ellipse fill="#e3f38b" stroke="black" cx="94" cy="-90" rx="77.51" ry="18"/>
<text text-anchor="middle" x="94" y="-85.33" font-family="Times,serif" font-size="14.00">configuration</text>
</g>
<!-- ::app_builder&#45;&gt;::configuration -->
<g id="edge1" class="edge">
<title>::app_builder&#45;&gt;::configuration</title>
<path fill="none" stroke="black" d="M100.02,-143.7C99.19,-136.41 98.2,-127.73 97.26,-119.54"/>
<polygon fill="black" stroke="black" points="100.74,-119.15 96.13,-109.61 93.78,-119.94 100.74,-119.15"/>
</g>
<!-- ::std -->
<g id="node4" class="node">
<title>::std</title>
<ellipse fill="none" stroke="black" cx="223" cy="-90" rx="33.32" ry="18"/>
<text text-anchor="middle" x="223" y="-85.33" font-family="Times,serif" font-size="14.00">::std</text>
</g>
<!-- ::app_builder&#45;&gt;::std -->
<g id="edge2" class="edge">
<title>::app_builder&#45;&gt;::std</title>
<path fill="none" stroke="black" d="M129.46,-145.12C147.78,-134.52 171.93,-120.54 191.11,-109.45"/>
<polygon fill="black" stroke="black" points="192.69,-112.58 199.59,-104.54 189.18,-106.52 192.69,-112.58"/>
</g>
<!-- ::tokio -->
<g id="node5" class="node">
<title>::tokio</title>
<ellipse fill="none" stroke="black" cx="317" cy="-90" rx="42.26" ry="18"/>
<text text-anchor="middle" x="317" y="-85.33" font-family="Times,serif" font-size="14.00">::tokio</text>
</g>
<!-- ::app_builder&#45;&gt;::tokio -->
<g id="edge3" class="edge">
<title>::app_builder&#45;&gt;::tokio</title>
<path fill="none" stroke="black" d="M144.22,-147.29C177.13,-136.6 223.98,-121.37 265,-108 267.73,-107.11 270.53,-106.2 273.36,-105.27"/>
<polygon fill="black" stroke="black" points="274.41,-108.61 282.83,-102.18 272.24,-101.96 274.41,-108.61"/>
</g>
<!-- ::clap -->
<g id="node6" class="node">
<title>::clap</title>
<ellipse fill="none" stroke="black" cx="94" cy="-18" rx="38.06" ry="18"/>
<text text-anchor="middle" x="94" y="-13.32" font-family="Times,serif" font-size="14.00">::clap</text>
</g>
<!-- ::configuration&#45;&gt;::clap -->
<g id="edge4" class="edge">
<title>::configuration&#45;&gt;::clap</title>
<path fill="none" stroke="black" d="M94,-71.7C94,-64.41 94,-55.73 94,-47.54"/>
<polygon fill="black" stroke="black" points="97.5,-47.62 94,-37.62 90.5,-47.62 97.5,-47.62"/>
</g>
<!-- ::main -->
<g id="node3" class="node">
<title>::main</title>
<ellipse fill="#e3f38b" stroke="black" cx="119" cy="-234" rx="35.95" ry="18"/>
<text text-anchor="middle" x="119" y="-229.32" font-family="Times,serif" font-size="14.00">main</text>
</g>
<!-- ::main&#45;&gt;::app_builder -->
<g id="edge5" class="edge">
<title>::main&#45;&gt;::app_builder</title>
<path fill="none" stroke="black" d="M114.8,-215.7C113.01,-208.32 110.87,-199.52 108.86,-191.25"/>
<polygon fill="black" stroke="black" points="112.27,-190.47 106.51,-181.58 105.47,-192.12 112.27,-190.47"/>
</g>
<!-- ::anyhow -->
<g id="node7" class="node">
<title>::anyhow</title>
<ellipse fill="none" stroke="black" cx="246" cy="-162" rx="55.94" ry="18"/>
<text text-anchor="middle" x="246" y="-157.32" font-family="Times,serif" font-size="14.00">::anyhow</text>
</g>
<!-- ::main&#45;&gt;::anyhow -->
<g id="edge6" class="edge">
<title>::main&#45;&gt;::anyhow</title>
<path fill="none" stroke="black" d="M142.59,-220C161.08,-209.8 187.17,-195.42 208.52,-183.66"/>
<polygon fill="black" stroke="black" points="210.17,-186.75 217.24,-178.85 206.79,-180.62 210.17,-186.75"/>
</g>
</g>
</svg>
<?xml version="1.0" encoding="UTF-8" standalone="no"?>
<!DOCTYPE svg PUBLIC "-//W3C//DTD SVG 1.1//EN"
 "http://www.w3.org/Graphics/SVG/1.1/DTD/svg11.dtd">
<!-- Generated by graphviz version 12.2.1 (0)
 -->
<!-- Title: dependencies Pages: 1 -->
<svg width="1278pt" height="608pt"
 viewBox="0.00 0.00 1278.06 607.75" xmlns="http://www.w3.org/2000/svg" xmlns:xlink="http://www.w3.org/1999/xlink">
<g id="graph0" class="graph" transform="scale(1 1) rotate(0) translate(4 603.75)">
<title>dependencies</title>
<polygon fill="white" stroke="none" points="-4,4 -4,-603.75 1274.06,-603.75 1274.06,4 -4,4"/>
<g id="clust1" class="cluster">
<title>cluster_</title>
<polygon fill="#eeeeee" stroke="#eeeeee" points="8,-56 8,-591.75 1046,-591.75 1046,-56 8,-56"/>
</g>
<g id="clust2" class="cluster">
<title>cluster____domain</title>
<polygon fill="#dddddd" stroke="#dddddd" points="543,-64 543,-285.25 1035,-285.25 1035,-64 543,-64"/>
<text text-anchor="middle" x="789" y="-267.95" font-family="Times,serif" font-size="14.00">domain</text>
</g>
<g id="clust3" class="cluster">
<title>cluster____interfaces</title>
<polygon fill="#dddddd" stroke="#dddddd" points="16,-357.25 16,-539.75 580,-539.75 580,-357.25 16,-357.25"/>
<text text-anchor="middle" x="298" y="-522.45" font-family="Times,serif" font-size="14.00">interfaces</text>
</g>
<g id="clust4" class="cluster">
<title>cluster____interfaces___lexicons</title>
<polygon fill="#cccccc" stroke="#cccccc" points="24,-429.25 24,-506.5 324,-506.5 324,-429.25 24,-429.25"/>
<text text-anchor="middle" x="174" y="-489.2" font-family="Times,serif" font-size="14.00">lexicons</text>
</g>
<g id="clust5" class="cluster">
<title>cluster____storages</title>
<polygon fill="#dddddd" stroke="#dddddd" points="718,-357.25 718,-506.5 872,-506.5 872,-357.25 718,-357.25"/>
<text text-anchor="middle" x="795" y="-489.2" font-family="Times,serif" font-size="14.00">storages</text>
</g>
<!-- ::domain::ballot_paper -->
<g id="node1" class="node">
<title>::domain::ballot_paper</title>
<ellipse fill="#e1a995" stroke="black" cx="624" cy="-162" rx="73.3" ry="18"/>
<text text-anchor="middle" x="624" y="-157.32" font-family="Times,serif" font-size="14.00">ballot_paper</text>
</g>
<!-- ::domain::generic_domains -->
<g id="node2" class="node">
<title>::domain::generic_domains</title>
<ellipse fill="#e1a995" stroke="black" cx="782" cy="-90" rx="95.4" ry="18"/>
<text text-anchor="middle" x="782" y="-85.33" font-family="Times,serif" font-size="14.00">generic_domains</text>
</g>
<!-- ::domain::ballot_paper&#45;&gt;::domain::generic_domains -->
<g id="edge6" class="edge">
<title>::domain::ballot_paper&#45;&gt;::domain::generic_domains</title>
<path fill="none" stroke="black" d="M658.28,-145.81C680.92,-135.78 710.85,-122.52 735.61,-111.55"/>
<polygon fill="black" stroke="black" points="736.75,-114.87 744.48,-107.62 733.92,-108.47 736.75,-114.87"/>
</g>
<!-- ::std -->
<g id="node23" class="node">
<title>::std</title>
<ellipse fill="none" stroke="black" cx="782" cy="-18" rx="33.32" ry="18"/>
<text text-anchor="middle" x="782" y="-13.32" font-family="Times,serif" font-size="14.00">::std</text>
</g>
<!-- ::domain::generic_domains&#45;&gt;::std -->
<g id="edge7" class="edge">
<title>::domain::generic_domains&#45;&gt;::std</title>
<path fill="none" stroke="black" d="M782,-71.7C782,-64.41 782,-55.73 782,-47.54"/>
<polygon fill="black" stroke="black" points="785.5,-47.62 782,-37.62 778.5,-47.62 785.5,-47.62"/>
</g>
<!-- ::domain::mod -->
<g id="node3" class="node">
<title>::domain::mod</title>
<ellipse fill="#e1a995" stroke="black" cx="613" cy="-234" rx="32.79" ry="18"/>
<text text-anchor="middle" x="613" y="-229.32" font-family="Times,serif" font-size="14.00">mod</text>
</g>
<!-- ::domain::scoreboard -->
<g id="node4" class="node">
<title>::domain::scoreboard</title>
<ellipse fill="#e1a995" stroke="black" cx="782" cy="-162" rx="66.99" ry="18"/>
<text text-anchor="middle" x="782" y="-157.32" font-family="Times,serif" font-size="14.00">scoreboard</text>
</g>
<!-- ::domain::scoreboard&#45;&gt;::domain::generic_domains -->
<g id="edge8" class="edge">
<title>::domain::scoreboard&#45;&gt;::domain::generic_domains</title>
<path fill="none" stroke="black" d="M782,-143.7C782,-136.41 782,-127.73 782,-119.54"/>
<polygon fill="black" stroke="black" points="785.5,-119.62 782,-109.62 778.5,-119.62 785.5,-119.62"/>
</g>
<!-- ::domain::vote_outcome -->
<g id="node5" class="node">
<title>::domain::vote_outcome</title>
<ellipse fill="#e1a995" stroke="black" cx="947" cy="-162" rx="80.14" ry="18"/>
<text text-anchor="middle" x="947" y="-157.32" font-family="Times,serif" font-size="14.00">vote_outcome</text>
</g>
<!-- ::domain::vote_outcome&#45;&gt;::domain::generic_domains -->
<g id="edge9" class="edge">
<title>::domain::vote_outcome&#45;&gt;::domain::generic_domains</title>
<path fill="none" stroke="black" d="M910.79,-145.64C887.03,-135.56 855.69,-122.26 829.88,-111.31"/>
<polygon fill="black" stroke="black" points="831.52,-108.21 820.95,-107.52 828.79,-114.65 831.52,-108.21"/>
</g>
<!-- ::domain::voting_machine -->
<g id="node6" class="node">
<title>::domain::voting_machine</title>
<ellipse fill="#e1a995" stroke="black" cx="782" cy="-234" rx="89.61" ry="18"/>
<text text-anchor="middle" x="782" y="-229.32" font-family="Times,serif" font-size="14.00">voting_machine</text>
</g>
<!-- ::domain::voting_machine&#45;&gt;::domain::ballot_paper -->
<g id="edge10" class="edge">
<title>::domain::voting_machine&#45;&gt;::domain::ballot_paper</title>
<path fill="none" stroke="black" d="M746.15,-217.12C723.23,-206.96 693.32,-193.71 668.83,-182.86"/>
<polygon fill="black" stroke="black" points="670.3,-179.68 659.74,-178.83 667.46,-186.08 670.3,-179.68"/>
</g>
<!-- ::domain::voting_machine&#45;&gt;::domain::scoreboard -->
<g id="edge11" class="edge">
<title>::domain::voting_machine&#45;&gt;::domain::scoreboard</title>
<path fill="none" stroke="black" d="M782,-215.7C782,-208.41 782,-199.73 782,-191.54"/>
<polygon fill="black" stroke="black" points="785.5,-191.62 782,-181.62 778.5,-191.62 785.5,-191.62"/>
</g>
<!-- ::domain::voting_machine&#45;&gt;::domain::vote_outcome -->
<g id="edge12" class="edge">
<title>::domain::voting_machine&#45;&gt;::domain::vote_outcome</title>
<path fill="none" stroke="black" d="M819.03,-217.29C843.08,-207.09 874.63,-193.7 900.38,-182.78"/>
<polygon fill="black" stroke="black" points="901.43,-186.13 909.27,-179.01 898.7,-179.69 901.43,-186.13"/>
</g>
<!-- ::interfaces::lexicons::english -->
<g id="node7" class="node">
<title>::interfaces::lexicons::english</title>
<ellipse fill="#b6b2ec" stroke="black" cx="80" cy="-455.25" rx="47.53" ry="18"/>
<text text-anchor="middle" x="80" y="-450.57" font-family="Times,serif" font-size="14.00">english</text>
</g>
<!-- ::interfaces::lexicon -->
<g id="node11" class="node">
<title>::interfaces::lexicon</title>
<ellipse fill="#b1b985" stroke="black" cx="189" cy="-383.25" rx="46.47" ry="18"/>
<text text-anchor="middle" x="189" y="-378.57" font-family="Times,serif" font-size="14.00">lexicon</text>
</g>
<!-- ::interfaces::lexicons::english&#45;&gt;::interfaces::lexicon -->
<g id="edge15" class="edge">
<title>::interfaces::lexicons::english&#45;&gt;::interfaces::lexicon</title>
<path fill="none" stroke="black" d="M103.38,-439.23C118.76,-429.36 139.1,-416.3 156.1,-405.38"/>
<polygon fill="black" stroke="black" points="157.86,-408.41 164.38,-400.06 154.08,-402.52 157.86,-408.41"/>
</g>
<!-- ::interfaces::lexicons::french -->
<g id="node8" class="node">
<title>::interfaces::lexicons::french</title>
<ellipse fill="#b6b2ec" stroke="black" cx="189" cy="-455.25" rx="43.32" ry="18"/>
<text text-anchor="middle" x="189" y="-450.57" font-family="Times,serif" font-size="14.00">french</text>
</g>
<!-- ::interfaces::lexicons::french&#45;&gt;::interfaces::lexicon -->
<g id="edge16" class="edge">
<title>::interfaces::lexicons::french&#45;&gt;::interfaces::lexicon</title>
<path fill="none" stroke="black" d="M189,-436.95C189,-429.66 189,-420.98 189,-412.79"/>
<polygon fill="black" stroke="black" points="192.5,-412.87 189,-402.87 185.5,-412.87 192.5,-412.87"/>
</g>
<!-- ::interfaces::lexicons::mod -->
<g id="node9" class="node">
<title>::interfaces::lexicons::mod</title>
<ellipse fill="#b6b2ec" stroke="black" cx="283" cy="-455.25" rx="32.79" ry="18"/>
<text text-anchor="middle" x="283" y="-450.57" font-family="Times,serif" font-size="14.00">mod</text>
</g>
<!-- ::interfaces::cli_interfaces -->
<g id="node10" class="node">
<title>::interfaces::cli_interfaces</title>
<ellipse fill="#b1b985" stroke="black" cx="411" cy="-455.25" rx="77.51" ry="18"/>
<text text-anchor="middle" x="411" y="-450.57" font-family="Times,serif" font-size="14.00">cli_interfaces</text>
</g>
<!-- ::interfaces::cli_interfaces&#45;&gt;::interfaces::lexicon -->
<g id="edge13" class="edge">
<title>::interfaces::cli_interfaces&#45;&gt;::interfaces::lexicon</title>
<path fill="none" stroke="black" d="M364.89,-440.44C330.19,-429.95 281.51,-415.02 239,-401.25 237.2,-400.67 235.37,-400.07 233.52,-399.46"/>
<polygon fill="black" stroke="black" points="234.87,-396.22 224.28,-396.38 232.66,-402.86 234.87,-396.22"/>
</g>
<!-- ::use_cases -->
<g id="node21" class="node">
<title>::use_cases</title>
<ellipse fill="#e3f38b" stroke="black" cx="649" cy="-383.25" rx="60.68" ry="18"/>
<text text-anchor="middle" x="649" y="-378.57" font-family="Times,serif" font-size="14.00">use_cases</text>
</g>
<!-- ::interfaces::cli_interfaces&#45;&gt;::use_cases -->
<g id="edge14" class="edge">
<title>::interfaces::cli_interfaces&#45;&gt;::use_cases</title>
<path fill="none" stroke="black" d="M457.74,-440.5C497.54,-428.8 554.71,-411.98 596.17,-399.79"/>
<polygon fill="black" stroke="black" points="597.09,-403.17 605.7,-396.99 595.12,-396.45 597.09,-403.17"/>
</g>
<!-- ::interfaces::mod -->
<g id="node12" class="node">
<title>::interfaces::mod</title>
<ellipse fill="#b1b985" stroke="black" cx="539" cy="-455.25" rx="32.79" ry="18"/>
<text text-anchor="middle" x="539" y="-450.57" font-family="Times,serif" font-size="14.00">mod</text>
</g>
<!-- ::storages::file -->
<g id="node13" class="node">
<title>::storages::file</title>
<ellipse fill="#93e39b" stroke="black" cx="837" cy="-455.25" rx="27" ry="18"/>
<text text-anchor="middle" x="837" y="-450.57" font-family="Times,serif" font-size="14.00">file</text>
</g>
<!-- ::storage -->
<g id="node20" class="node">
<title>::storage</title>
<ellipse fill="#e3f38b" stroke="black" cx="782" cy="-311.25" rx="49.1" ry="18"/>
<text text-anchor="middle" x="782" y="-306.57" font-family="Times,serif" font-size="14.00">storage</text>
</g>
<!-- ::storages::file&#45;&gt;::storage -->
<g id="edge21" class="edge">
<title>::storages::file&#45;&gt;::storage</title>
<path fill="none" stroke="black" d="M842.35,-437.46C847.78,-417.28 853.71,-382.93 841,-357.25 836.22,-347.58 828.25,-339.43 819.7,-332.83"/>
<polygon fill="black" stroke="black" points="821.75,-329.99 811.55,-327.14 817.75,-335.74 821.75,-329.99"/>
</g>
<!-- ::tokio -->
<g id="node26" class="node">
<title>::tokio</title>
<ellipse fill="none" stroke="black" cx="1096" cy="-383.25" rx="42.26" ry="18"/>
<text text-anchor="middle" x="1096" y="-378.57" font-family="Times,serif" font-size="14.00">::tokio</text>
</g>
<!-- ::storages::file&#45;&gt;::tokio -->
<g id="edge22" class="edge">
<title>::storages::file&#45;&gt;::tokio</title>
<path fill="none" stroke="black" d="M851.77,-439.93C856.61,-435.93 862.24,-431.94 868,-429.25 924.23,-403 995.2,-392.05 1042.9,-387.49"/>
<polygon fill="black" stroke="black" points="1043.04,-390.99 1052.7,-386.62 1042.43,-384.02 1043.04,-390.99"/>
</g>
<!-- ::serde -->
<g id="node27" class="node">
<title>::serde</title>
<ellipse fill="none" stroke="black" cx="1132" cy="-311.25" rx="45.42" ry="18"/>
<text text-anchor="middle" x="1132" y="-306.57" font-family="Times,serif" font-size="14.00">::serde</text>
</g>
<!-- ::storages::file&#45;&gt;::serde -->
<g id="edge23" class="edge">
<title>::storages::file&#45;&gt;::serde</title>
<path fill="none" stroke="black" d="M851.62,-439.59C856.46,-435.57 862.12,-431.66 868,-429.25 925.65,-405.6 1105.2,-447.46 1147,-401.25 1162.08,-384.58 1155.55,-358.65 1146.9,-339.07"/>
<polygon fill="black" stroke="black" points="1150.16,-337.78 1142.65,-330.31 1143.86,-340.83 1150.16,-337.78"/>
</g>
<!-- ::storages::memory -->
<g id="node14" class="node">
<title>::storages::memory</title>
<ellipse fill="#93e39b" stroke="black" cx="780" cy="-383.25" rx="52.26" ry="18"/>
<text text-anchor="middle" x="780" y="-378.57" font-family="Times,serif" font-size="14.00">memory</text>
</g>
<!-- ::storages::memory&#45;&gt;::storage -->
<g id="edge24" class="edge">
<title>::storages::memory&#45;&gt;::storage</title>
<path fill="none" stroke="black" d="M780.49,-364.95C780.7,-357.66 780.95,-348.98 781.18,-340.79"/>
<polygon fill="black" stroke="black" points="784.68,-340.96 781.47,-330.87 777.68,-340.76 784.68,-340.96"/>
</g>
<!-- ::storages::mod -->
<g id="node15" class="node">
<title>::storages::mod</title>
<ellipse fill="#93e39b" stroke="black" cx="759" cy="-455.25" rx="32.79" ry="18"/>
<text text-anchor="middle" x="759" y="-450.57" font-family="Times,serif" font-size="14.00">mod</text>
</g>
<!-- ::storages::mod&#45;&gt;::storages::memory -->
<g id="edge25" class="edge">
<title>::storages::mod&#45;&gt;::storages::memory</title>
<path fill="none" stroke="black" d="M764.08,-437.3C766.32,-429.85 769.01,-420.89 771.53,-412.47"/>
<polygon fill="black" stroke="black" points="774.86,-413.56 774.38,-402.98 768.16,-411.55 774.86,-413.56"/>
</g>
<!-- ::app_builder -->
<g id="node16" class="node">
<title>::app_builder</title>
<ellipse fill="#e3f38b" stroke="black" cx="732" cy="-565.75" rx="70.15" ry="18"/>
<text text-anchor="middle" x="732" y="-561.08" font-family="Times,serif" font-size="14.00">app_builder</text>
</g>
<!-- ::app_builder&#45;&gt;::interfaces::cli_interfaces -->
<g id="edge2" class="edge">
<title>::app_builder&#45;&gt;::interfaces::cli_interfaces</title>
<path fill="none" stroke="black" d="M662.57,-562.35C604.07,-559.42 525.47,-553.09 497,-539.75 469.63,-526.92 445.64,-501.77 430,-482.41"/>
<polygon fill="black" stroke="black" points="432.85,-480.38 423.94,-474.65 427.33,-484.69 432.85,-480.38"/>
</g>
<!-- ::app_builder&#45;&gt;::storages::file -->
<g id="edge3" class="edge">
<title>::app_builder&#45;&gt;::storages::file</title>
<path fill="none" stroke="black" d="M781.27,-552.61C788.46,-549.29 795.34,-545.08 801,-539.75 816.65,-525.01 825.83,-502.32 831.01,-484.32"/>
<polygon fill="black" stroke="black" points="834.36,-485.31 833.47,-474.76 827.58,-483.56 834.36,-485.31"/>
</g>
<!-- ::app_builder&#45;&gt;::storages::memory -->
<g id="edge4" class="edge">
<title>::app_builder&#45;&gt;::storages::memory</title>
<path fill="none" stroke="black" d="M720.08,-547.54C718.82,-545.02 717.73,-542.38 717,-539.75 703.89,-492.42 694.53,-472.92 717,-429.25 722.11,-419.32 730.55,-411.09 739.61,-404.51"/>
<polygon fill="black" stroke="black" points="741.45,-407.48 747.9,-399.07 737.62,-401.63 741.45,-407.48"/>
</g>
<!-- ::configuration -->
<g id="node17" class="node">
<title>::configuration</title>
<ellipse fill="#e3f38b" stroke="black" cx="960" cy="-455.25" rx="77.51" ry="18"/>
<text text-anchor="middle" x="960" y="-450.57" font-family="Times,serif" font-size="14.00">configuration</text>
</g>
<!-- ::app_builder&#45;&gt;::configuration -->
<g id="edge1" class="edge">
<title>::app_builder&#45;&gt;::configuration</title>
<path fill="none" stroke="black" d="M789.41,-555.18C828.66,-548.58 873.97,-540.8 876,-539.75 902.25,-526.18 925.5,-501.53 940.85,-482.52"/>
<polygon fill="black" stroke="black" points="943.6,-484.67 946.99,-474.64 938.08,-480.37 943.6,-484.67"/>
</g>
<!-- ::clap -->
<g id="node22" class="node">
<title>::clap</title>
<ellipse fill="none" stroke="black" cx="1232" cy="-383.25" rx="38.06" ry="18"/>
<text text-anchor="middle" x="1232" y="-378.57" font-family="Times,serif" font-size="14.00">::clap</text>
</g>
<!-- ::configuration&#45;&gt;::clap -->
<g id="edge5" class="edge">
<title>::configuration&#45;&gt;::clap</title>
<path fill="none" stroke="black" d="M1008.11,-440.69C1022.21,-436.85 1037.69,-432.76 1052,-429.25 1108.56,-415.39 1123.81,-416.54 1180,-401.25 1183.57,-400.28 1187.27,-399.21 1190.96,-398.09"/>
<polygon fill="black" stroke="black" points="1191.97,-401.44 1200.46,-395.11 1189.88,-394.76 1191.97,-401.44"/>
</g>
<!-- ::lib -->
<g id="node18" class="node">
<title>::lib</title>
<ellipse fill="#e3f38b" stroke="black" cx="872" cy="-565.75" rx="27" ry="18"/>
<text text-anchor="middle" x="872" y="-561.08" font-family="Times,serif" font-size="14.00">lib</text>
</g>
<!-- ::main -->
<g id="node19" class="node">
<title>::main</title>
<ellipse fill="#e3f38b" stroke="black" cx="1002" cy="-565.75" rx="35.95" ry="18"/>
<text text-anchor="middle" x="1002" y="-561.08" font-family="Times,serif" font-size="14.00">main</text>
</g>
<!-- ::main&#45;&gt;::clap -->
<g id="edge17" class="edge">
<title>::main&#45;&gt;::clap</title>
<path fill="none" stroke="black" d="M1029.11,-553.85C1035.68,-550.17 1042.18,-545.5 1047,-539.75 1080.36,-499.94 1047.47,-465.14 1085,-429.25 1116.81,-398.83 1137.96,-414.31 1180,-401.25 1183.49,-400.16 1187.11,-399.02 1190.74,-397.86"/>
<polygon fill="black" stroke="black" points="1191.65,-401.25 1200.09,-394.84 1189.49,-394.59 1191.65,-401.25"/>
</g>
<!-- ::rust_moment -->
<g id="node24" class="node">
<title>::rust_moment</title>
<ellipse fill="none" stroke="black" cx="1178" cy="-455.25" rx="83.83" ry="18"/>
<text text-anchor="middle" x="1178" y="-450.57" font-family="Times,serif" font-size="14.00">::rust_moment</text>
</g>
<!-- ::main&#45;&gt;::rust_moment -->
<g id="edge18" class="edge">
<title>::main&#45;&gt;::rust_moment</title>
<path fill="none" stroke="black" d="M1034.3,-557.49C1048.82,-553.45 1065.84,-547.63 1080,-539.75 1108.11,-524.1 1135.6,-499.65 1154.27,-481.24"/>
<polygon fill="black" stroke="black" points="1156.57,-483.9 1161.13,-474.34 1151.6,-478.96 1156.57,-483.9"/>
</g>
<!-- ::storage&#45;&gt;::domain::voting_machine -->
<g id="edge19" class="edge">
<title>::storage&#45;&gt;::domain::voting_machine</title>
<path fill="none" stroke="black" d="M782,-292.8C782,-284.15 782,-273.5 782,-263.69"/>
<polygon fill="black" stroke="black" points="785.5,-263.87 782,-253.87 778.5,-263.87 785.5,-263.87"/>
</g>
<!-- ::async_trait -->
<g id="node25" class="node">
<title>::async_trait</title>
<ellipse fill="none" stroke="black" cx="1127" cy="-234" rx="72.78" ry="18"/>
<text text-anchor="middle" x="1127" y="-229.32" font-family="Times,serif" font-size="14.00">::async_trait</text>
</g>
<!-- ::storage&#45;&gt;::async_trait -->
<g id="edge20" class="edge">
<title>::storage&#45;&gt;::async_trait</title>
<path fill="none" stroke="black" d="M830.59,-307.95C894.03,-304.54 1001.41,-297.21 1039,-285.25 1058.72,-278.98 1078.89,-267.87 1094.93,-257.68"/>
<polygon fill="black" stroke="black" points="1096.64,-260.75 1103.09,-252.34 1092.8,-254.9 1096.64,-260.75"/>
</g>
<!-- ::use_cases&#45;&gt;::storage -->
<g id="edge26" class="edge">
<title>::use_cases&#45;&gt;::storage</title>
<path fill="none" stroke="black" d="M677.86,-367.06C697.56,-356.69 723.82,-342.87 745.05,-331.7"/>
<polygon fill="black" stroke="black" points="746.45,-334.91 753.67,-327.16 743.19,-328.72 746.45,-334.91"/>
</g>
<!-- ::use_cases&#45;&gt;::serde -->
<g id="edge27" class="edge">
<title>::use_cases&#45;&gt;::serde</title>
<path fill="none" stroke="black" d="M681.5,-367.67C691.71,-363.66 703.16,-359.73 714,-357.25 860.07,-323.79 901.7,-350.72 1050,-329.25 1060.68,-327.7 1072.06,-325.63 1082.83,-323.45"/>
<polygon fill="black" stroke="black" points="1083.23,-326.95 1092.31,-321.48 1081.81,-320.09 1083.23,-326.95"/>
</g>
</g>
</svg>
