<?xml version="1.0" encoding="UTF-8" standalone="no"?>
<!DOCTYPE svg PUBLIC "-//W3C//DTD SVG 1.1//EN"
 "http://www.w3.org/Graphics/SVG/1.1/DTD/svg11.dtd">
<!-- Generated by graphviz version 12.1.2 (0)
 -->
<!-- Title: dependencies Pages: 1 -->
<svg width="496pt" height="204pt"
 viewBox="0.00 0.00 496.26 204.00" xmlns="http://www.w3.org/2000/svg" xmlns:xlink="http://www.w3.org/1999/xlink">
<g id="graph0" class="graph" transform="scale(1 1) rotate(0) translate(4 200)">
<title>dependencies</title>
<polygon fill="white" stroke="none" points="-4,4 -4,-200 492.26,-200 492.26,4 -4,4"/>
<g id="clust1" class="cluster">
<title>cluster_</title>
<polygon fill="#eeeeee" stroke="#eeeeee" points="8,-64 8,-188 180,-188 180,-64 8,-64"/>
</g>
<!-- ::configuration -->
<g id="node1" class="node">
<title>::configuration</title>
<ellipse fill="#e3f38b" stroke="black" cx="94" cy="-90" rx="77.51" ry="18"/>
<text text-anchor="middle" x="94" y="-85.33" font-family="Times,serif" font-size="14.00">configuration</text>
</g>
<!-- ::clap -->
<g id="node3" class="node">
<title>::clap</title>
<ellipse fill="none" stroke="black" cx="94" cy="-18" rx="38.06" ry="18"/>
<text text-anchor="middle" x="94" y="-13.32" font-family="Times,serif" font-size="14.00">::clap</text>
</g>
<!-- ::configuration&#45;&gt;::clap -->
<g id="edge1" class="edge">
<title>::configuration&#45;&gt;::clap</title>
<path fill="none" stroke="black" d="M94,-71.7C94,-64.41 94,-55.73 94,-47.54"/>
<polygon fill="black" stroke="black" points="97.5,-47.62 94,-37.62 90.5,-47.62 97.5,-47.62"/>
</g>
<!-- ::main -->
<g id="node2" class="node">
<title>::main</title>
<ellipse fill="#e3f38b" stroke="black" cx="136" cy="-162" rx="35.95" ry="18"/>
<text text-anchor="middle" x="136" y="-157.32" font-family="Times,serif" font-size="14.00">main</text>
</g>
<!-- ::main&#45;&gt;::configuration -->
<g id="edge2" class="edge">
<title>::main&#45;&gt;::configuration</title>
<path fill="none" stroke="black" d="M126.05,-144.41C121.25,-136.42 115.39,-126.64 109.99,-117.64"/>
<polygon fill="black" stroke="black" points="113.1,-116.03 104.95,-109.25 107.1,-119.63 113.1,-116.03"/>
</g>
<!-- ::anyhow -->
<g id="node4" class="node">
<title>::anyhow</title>
<ellipse fill="none" stroke="black" cx="245" cy="-90" rx="55.94" ry="18"/>
<text text-anchor="middle" x="245" y="-85.33" font-family="Times,serif" font-size="14.00">::anyhow</text>
</g>
<!-- ::main&#45;&gt;::anyhow -->
<g id="edge3" class="edge">
<title>::main&#45;&gt;::anyhow</title>
<path fill="none" stroke="black" d="M157.53,-147.17C172.93,-137.29 193.93,-123.79 211.5,-112.51"/>
<polygon fill="black" stroke="black" points="213.06,-115.67 219.58,-107.32 209.27,-109.78 213.06,-115.67"/>
</g>
<!-- ::std -->
<g id="node5" class="node">
<title>::std</title>
<ellipse fill="none" stroke="black" cx="352" cy="-90" rx="33.32" ry="18"/>
<text text-anchor="middle" x="352" y="-85.33" font-family="Times,serif" font-size="14.00">::std</text>
</g>
<!-- ::main&#45;&gt;::std -->
<g id="edge4" class="edge">
<title>::main&#45;&gt;::std</title>
<path fill="none" stroke="black" d="M167.07,-152.44C202.09,-142.58 260.58,-125.49 310,-108 311.92,-107.32 313.88,-106.61 315.85,-105.87"/>
<polygon fill="black" stroke="black" points="316.9,-109.22 324.96,-102.34 314.37,-102.69 316.9,-109.22"/>
</g>
<!-- ::tokio -->
<g id="node6" class="node">
<title>::tokio</title>
<ellipse fill="none" stroke="black" cx="446" cy="-90" rx="42.26" ry="18"/>
<text text-anchor="middle" x="446" y="-85.33" font-family="Times,serif" font-size="14.00">::tokio</text>
</g>
<!-- ::main&#45;&gt;::tokio -->
<g id="edge5" class="edge">
<title>::main&#45;&gt;::tokio</title>
<path fill="none" stroke="black" d="M169.68,-155.34C219.21,-146.73 314.44,-129.1 394,-108 396.95,-107.22 399.99,-106.36 403.03,-105.47"/>
<polygon fill="black" stroke="black" points="404.02,-108.82 412.55,-102.54 401.96,-102.13 404.02,-108.82"/>
</g>
</g>
</svg>
<?xml version="1.0" encoding="UTF-8" standalone="no"?>
<!DOCTYPE svg PUBLIC "-//W3C//DTD SVG 1.1//EN"
 "http://www.w3.org/Graphics/SVG/1.1/DTD/svg11.dtd">
<!-- Generated by graphviz version 12.1.2 (0)
 -->
<!-- Title: dependencies Pages: 1 -->
<svg width="367pt" height="276pt"
 viewBox="0.00 0.00 367.26 276.00" xmlns="http://www.w3.org/2000/svg" xmlns:xlink="http://www.w3.org/1999/xlink">
<g id="graph0" class="graph" transform="scale(1 1) rotate(0) translate(4 272)">
<title>dependencies</title>
<polygon fill="white" stroke="none" points="-4,4 -4,-272 363.26,-272 363.26,4 -4,4"/>
<g id="clust1" class="cluster">
<title>cluster_</title>
<polygon fill="#eeeeee" stroke="#eeeeee" points="8,-64 8,-260 180,-260 180,-64 8,-64"/>
</g>
<!-- ::app_builder -->
<g id="node1" class="node">
<title>::app_builder</title>
<ellipse fill="#e3f38b" stroke="black" cx="102" cy="-162" rx="70.15" ry="18"/>
<text text-anchor="middle" x="102" y="-157.32" font-family="Times,serif" font-size="14.00">app_builder</text>
</g>
<!-- ::configuration -->
<g id="node2" class="node">
<title>::configuration</title>
<ellipse fill="#e3f38b" stroke="black" cx="94" cy="-90" rx="77.51" ry="18"/>
<text text-anchor="middle" x="94" y="-85.33" font-family="Times,serif" font-size="14.00">configuration</text>
</g>
<!-- ::app_builder&#45;&gt;::configuration -->
<g id="edge1" class="edge">
<title>::app_builder&#45;&gt;::configuration</title>
<path fill="none" stroke="black" d="M100.02,-143.7C99.19,-136.41 98.2,-127.73 97.26,-119.54"/>
<polygon fill="black" stroke="black" points="100.74,-119.15 96.13,-109.61 93.78,-119.94 100.74,-119.15"/>
</g>
<!-- ::std -->
<g id="node4" class="node">
<title>::std</title>
<ellipse fill="none" stroke="black" cx="223" cy="-90" rx="33.32" ry="18"/>
<text text-anchor="middle" x="223" y="-85.33" font-family="Times,serif" font-size="14.00">::std</text>
</g>
<!-- ::app_builder&#45;&gt;::std -->
<g id="edge2" class="edge">
<title>::app_builder&#45;&gt;::std</title>
<path fill="none" stroke="black" d="M129.46,-145.12C147.78,-134.52 171.93,-120.54 191.11,-109.45"/>
<polygon fill="black" stroke="black" points="192.69,-112.58 199.59,-104.54 189.18,-106.52 192.69,-112.58"/>
</g>
<!-- ::tokio -->
<g id="node5" class="node">
<title>::tokio</title>
<ellipse fill="none" stroke="black" cx="317" cy="-90" rx="42.26" ry="18"/>
<text text-anchor="middle" x="317" y="-85.33" font-family="Times,serif" font-size="14.00">::tokio</text>
</g>
<!-- ::app_builder&#45;&gt;::tokio -->
<g id="edge3" class="edge">
<title>::app_builder&#45;&gt;::tokio</title>
<path fill="none" stroke="black" d="M144.22,-147.29C177.13,-136.6 223.98,-121.37 265,-108 267.73,-107.11 270.53,-106.2 273.36,-105.27"/>
<polygon fill="black" stroke="black" points="274.41,-108.61 282.83,-102.18 272.24,-101.96 274.41,-108.61"/>
</g>
<!-- ::clap -->
<g id="node6" class="node">
<title>::clap</title>
<ellipse fill="none" stroke="black" cx="94" cy="-18" rx="38.06" ry="18"/>
<text text-anchor="middle" x="94" y="-13.32" font-family="Times,serif" font-size="14.00">::clap</text>
</g>
<!-- ::configuration&#45;&gt;::clap -->
<g id="edge4" class="edge">
<title>::configuration&#45;&gt;::clap</title>
<path fill="none" stroke="black" d="M94,-71.7C94,-64.41 94,-55.73 94,-47.54"/>
<polygon fill="black" stroke="black" points="97.5,-47.62 94,-37.62 90.5,-47.62 97.5,-47.62"/>
</g>
<!-- ::main -->
<g id="node3" class="node">
<title>::main</title>
<ellipse fill="#e3f38b" stroke="black" cx="119" cy="-234" rx="35.95" ry="18"/>
<text text-anchor="middle" x="119" y="-229.32" font-family="Times,serif" font-size="14.00">main</text>
</g>
<!-- ::main&#45;&gt;::app_builder -->
<g id="edge5" class="edge">
<title>::main&#45;&gt;::app_builder</title>
<path fill="none" stroke="black" d="M114.8,-215.7C113.01,-208.32 110.87,-199.52 108.86,-191.25"/>
<polygon fill="black" stroke="black" points="112.27,-190.47 106.51,-181.58 105.47,-192.12 112.27,-190.47"/>
</g>
<!-- ::anyhow -->
<g id="node7" class="node">
<title>::anyhow</title>
<ellipse fill="none" stroke="black" cx="246" cy="-162" rx="55.94" ry="18"/>
<text text-anchor="middle" x="246" y="-157.32" font-family="Times,serif" font-size="14.00">::anyhow</text>
</g>
<!-- ::main&#45;&gt;::anyhow -->
<g id="edge6" class="edge">
<title>::main&#45;&gt;::anyhow</title>
<path fill="none" stroke="black" d="M142.59,-220C161.08,-209.8 187.17,-195.42 208.52,-183.66"/>
<polygon fill="black" stroke="black" points="210.17,-186.75 217.24,-178.85 206.79,-180.62 210.17,-186.75"/>
</g>
</g>
</svg>
